<?xml version="1.0" encoding="utf-8"?>
<!-- Generator: Adobe Illustrator 16.0.3, SVG Export Plug-In . SVG Version: 6.00 Build 0)  -->
<!DOCTYPE svg PUBLIC "-//W3C//DTD SVG 1.1//EN" "http://www.w3.org/Graphics/SVG/1.1/DTD/svg11.dtd">
<svg version="1.1" id="Layer_1" xmlns="http://www.w3.org/2000/svg" xmlns:xlink="http://www.w3.org/1999/xlink" x="0px" y="0px"
	 width="188px" height="48px" viewBox="0 0 188 48" enable-background="new 0 0 188 48" xml:space="preserve">
<g>
	<path fill="#FFFFFF" d="M66.255,14.346H86.03v3.955H70.209v11.865H86.03v3.955H66.255V14.346z"/>
	<path fill="#FFFFFF" d="M105.803,26.211H93.938v7.91h-3.954V14.346h19.774v19.775h-3.956L105.803,26.211L105.803,26.211z
		 M93.938,22.256h11.865v-3.955H93.938V22.256z"/>
	<path fill="#FFFFFF" d="M113.714,14.346h15.821v3.955h3.953v11.865h-3.953V18.301H117.67v11.865h11.865v3.955h-15.821V14.346z"/>
	<path fill="#FFFFFF" d="M137.445,14.346h19.775v3.955H141.4v3.955h7.91v3.955h-7.91v3.955h15.82v3.955h-19.775V14.346z"/>
	<path fill="#FFFFFF" d="M161.175,14.346h19.775v3.955h-15.819v3.955h15.819v11.865h-19.775v-3.955h15.821v-3.955h-15.821V14.346z"
		/>
</g>
<g>
	<rect x="41.667" y="18.301" fill="#FFFFFF" width="11.867" height="3.955"/>
	<rect x="17.939" y="18.301" fill="#FFFFFF" width="11.863" height="3.955"/>
	<path fill="#FFFFFF" d="M8.541,9.17v29.66h54.426V9.17H8.541z M33.758,34.121h-3.956v-7.91H17.939v7.91h-3.956V14.346h19.774
		L33.758,34.121L33.758,34.121z M57.488,26.211h-3.954v3.955h3.954v3.955h-3.954v-3.955h-3.956v-3.955h-7.911v7.91h-3.955V14.346
		h19.775L57.488,26.211L57.488,26.211z"/>
</g>
</svg>
